<svg width="214" height="51" viewBox="0 0 214 51" fill="none" xmlns="http://www.w3.org/2000/svg">
<g clip-path="url(#clip0_2632_324)">
<path d="M0 0V51H49.1345V0H0ZM30.7525 42.6203H9.32762V8.37968H15.8856V36.8719H30.7525V42.6203ZM39.8102 42.5124H33.2522V25.4899H24.8321V34.4802H18.274V8.48426H24.8321V19.674H33.2522V8.48426H39.8102V42.5124Z" fill="#F06C00"/>
<path d="M55.2739 12.4077H56.3905V20.1093H60.0811V21.0437H55.2739V12.4043V12.4077Z" fill="#F06C00"/>
<path d="M60.0813 21.2119H55.2741C55.1797 21.2119 55.1055 21.1377 55.1055 21.0432V12.4038C55.1055 12.2992 55.21 12.2182 55.3079 12.2385H56.3908C56.4852 12.2385 56.5594 12.3127 56.5594 12.4071V19.9401H60.0813C60.1758 19.9401 60.25 20.0143 60.25 20.1088V21.0432C60.25 21.1377 60.1758 21.2119 60.0813 21.2119ZM55.4428 20.8745H59.9127V20.2774H56.3908C56.2963 20.2774 56.2221 20.2032 56.2221 20.1088V12.5758H55.4428V20.8745Z" fill="#F06C00"/>
<path d="M62.5812 21.0467V17.3797L59.8521 12.4072H61.1205L62.3383 14.7923C62.6723 15.4467 62.9286 15.973 63.1985 16.5735H63.2255C63.4684 16.0101 63.7653 15.4467 64.0959 14.7923L65.3407 12.4072H66.6091L63.7113 17.3662V21.0433H62.5812V21.0467Z" fill="#F06C00"/>
<path d="M62.5814 21.212C62.5612 21.212 62.5375 21.2087 62.5173 21.1986C62.4532 21.1716 62.4127 21.1142 62.4127 21.0434V17.4203L59.7038 12.4849C59.6768 12.4309 59.6768 12.3702 59.7038 12.3162C59.7342 12.2656 59.7882 12.2319 59.8489 12.2319H61.1173C61.1814 12.2319 61.2388 12.269 61.2691 12.323L62.4869 14.708C62.7771 15.2781 62.9997 15.7302 63.2089 16.1856C63.3775 15.8246 63.5631 15.4569 63.7587 15.069L63.9409 14.708L65.1857 12.3196C65.2161 12.2623 65.2734 12.2285 65.3341 12.2285H66.6026C66.6633 12.2285 66.7173 12.2623 66.7476 12.3129C66.778 12.3668 66.778 12.4309 66.7476 12.4815L63.8734 17.4V21.0299C63.8734 21.1243 63.7992 21.1986 63.7048 21.1986H62.5949C62.5949 21.1986 62.5814 21.1986 62.5747 21.1986L62.5814 21.212ZM62.7501 20.8747H63.5428V17.3663C63.5428 17.3359 63.5496 17.3056 63.5664 17.282L66.3158 12.576H65.4421L64.0623 15.2309C63.8026 15.7437 63.5766 16.189 63.3809 16.641C63.3539 16.7017 63.2932 16.7422 63.2257 16.7422C63.1583 16.7422 63.0706 16.7017 63.0436 16.6444C62.7906 16.081 62.5409 15.5649 62.1867 14.8699L61.0161 12.576H60.1356L62.7265 17.2988C62.74 17.3224 62.7467 17.3528 62.7467 17.3798V20.8747H62.7501Z" fill="#F06C00"/>
<path d="M67.9146 12.5225C68.5926 12.4213 69.4022 12.3438 70.2861 12.3438C71.8885 12.3438 73.0287 12.7148 73.7844 13.4199C74.5535 14.1249 75.0022 15.1235 75.0022 16.5201C75.0022 17.9167 74.567 19.0839 73.7574 19.8767C72.9511 20.6829 71.6186 21.1215 69.9386 21.1215C69.1425 21.1215 68.4779 21.0844 67.9146 21.0203V12.5225ZM69.0312 20.1601C69.3145 20.2107 69.7227 20.2242 70.1579 20.2242C72.5429 20.2242 73.835 18.8916 73.835 16.5572C73.8485 14.5196 72.6947 13.2242 70.3367 13.2242C69.7598 13.2242 69.3247 13.2748 69.0278 13.3389V20.1567H69.0312V20.1601Z" fill="#F06C00"/>
<path d="M69.9388 21.2899C69.1798 21.2899 68.4916 21.2562 67.8945 21.1887C67.8102 21.1786 67.7461 21.1077 67.7461 21.02V12.5223C67.7461 12.4379 67.8068 12.3671 67.8912 12.357C68.694 12.2355 69.5003 12.1748 70.2863 12.1748C71.9089 12.1748 73.0897 12.5425 73.8993 13.2948C74.7427 14.0673 75.1711 15.1536 75.1711 16.5198C75.1711 17.9637 74.7224 19.168 73.8757 19.9979C73.0289 20.8446 71.6694 21.2899 69.9388 21.2899ZM68.0834 20.8682C68.6333 20.9256 69.254 20.9526 69.9388 20.9526C71.5783 20.9526 72.8569 20.5376 73.6395 19.7583C74.4222 18.9926 74.8337 17.8726 74.8337 16.5198C74.8337 15.1671 74.4525 14.263 73.6699 13.5444C72.9244 12.8495 71.8179 12.5122 70.2863 12.5122C69.561 12.5122 68.8222 12.5661 68.0834 12.6673V20.8682ZM70.1581 20.3926C69.6251 20.3926 69.2574 20.3723 69.001 20.3251C68.9673 20.3183 68.9369 20.3015 68.9099 20.2779C68.8796 20.2441 68.8593 20.2003 68.8593 20.1564V13.3386C68.8593 13.2577 68.9133 13.1902 68.9909 13.1733C69.2405 13.1194 69.6791 13.0553 70.3369 13.0553C71.5379 13.0553 72.4723 13.3791 73.1065 14.0167C73.7104 14.6239 74.0106 15.4774 74.0039 16.5569C74.0039 18.9926 72.6005 20.3926 70.1581 20.3926ZM69.1967 20.0147C69.4261 20.0417 69.7364 20.0552 70.1581 20.0552C72.4217 20.0552 73.6665 18.8138 73.6665 16.5569C73.6733 15.5719 73.4034 14.796 72.867 14.2562C72.2969 13.6827 71.4468 13.3926 70.3369 13.3926C69.814 13.3926 69.4429 13.4331 69.1967 13.477V20.0147Z" fill="#F06C00"/>
<path d="M78.0789 18.3281L77.1816 21.0437H76.0278L78.9627 12.4043H80.3088L83.2572 21.0437H82.0663L81.142 18.3281H78.0789ZM80.9126 17.4577L80.0659 14.9715C79.8736 14.4081 79.7454 13.8954 79.6172 13.3961H79.5902C79.462 13.9089 79.3203 14.4351 79.155 14.9614L78.3083 17.4611H80.9126V17.4577Z" fill="#F06C00"/>
<path d="M83.2568 21.2121H82.066C81.9952 21.2121 81.9311 21.1649 81.9075 21.0974L81.0236 18.4965H78.2034L77.3432 21.0974C77.3196 21.1683 77.2555 21.2121 77.1846 21.2121H76.0309C75.9769 21.2121 75.9263 21.1851 75.8926 21.1413C75.8622 21.0974 75.8521 21.0401 75.869 20.9895L78.8039 12.35C78.8275 12.2826 78.8916 12.2354 78.9624 12.2354H80.3084C80.3793 12.2354 80.4434 12.2826 80.467 12.35L83.4154 20.9895C83.4323 21.0401 83.4255 21.0974 83.3918 21.1413C83.3581 21.1851 83.3074 21.2121 83.2535 21.2121H83.2568ZM82.1875 20.8748H83.0207L80.187 12.5727H79.0839L76.2637 20.8748H77.0598L77.92 18.2738C77.9436 18.203 78.0077 18.1592 78.0786 18.1592H81.1417C81.2125 18.1592 81.2766 18.2064 81.3002 18.2738L82.1841 20.8748H82.1875ZM80.9089 17.6295H78.308C78.254 17.6295 78.2034 17.6025 78.1697 17.5587C78.1393 17.5148 78.1292 17.4575 78.1461 17.4069L78.9928 14.9071C79.1379 14.4483 79.2728 13.9524 79.4246 13.3553C79.4448 13.2811 79.5123 13.2271 79.5865 13.2271C79.6607 13.2271 79.7586 13.2778 79.7754 13.3553L79.8024 13.4565C79.9205 13.9221 80.0453 14.4011 80.2207 14.9206L81.0675 17.4069C81.0877 17.4676 81.0708 17.5384 81.0236 17.5823H81.0202C80.9899 17.616 80.946 17.6329 80.9055 17.6329L80.9089 17.6295ZM78.5441 17.2922H80.6795L79.907 15.0252C79.7856 14.671 79.6911 14.337 79.6034 14.0165C79.5056 14.3775 79.4145 14.7014 79.3166 15.0117L78.5441 17.2922Z" fill="#F06C00"/>
<path d="M89.1811 12.4072V16.0202H93.3608V12.4072H94.4875V21.0467H93.3608V16.9951H89.1811V21.0467H88.0645V12.4072H89.1811Z" fill="#F06C00"/>
<path d="M94.4873 21.216H93.3605C93.2661 21.216 93.1918 21.1418 93.1918 21.0474V17.1645H89.3495V21.0474C89.3495 21.1418 89.2753 21.216 89.1808 21.216H88.0642C87.9697 21.216 87.8955 21.1418 87.8955 21.0474V12.4079C87.8955 12.3135 87.9697 12.2393 88.0642 12.2393H89.1808C89.2753 12.2393 89.3495 12.3135 89.3495 12.4079V15.8522H93.1918V12.4079C93.1918 12.3135 93.2661 12.2393 93.3605 12.2393H94.4873C94.5817 12.2393 94.6559 12.3135 94.6559 12.4079V21.0474C94.6559 21.1418 94.5817 21.216 94.4873 21.216ZM93.5292 20.8787H94.3186V12.5766H93.5292V16.0209C93.5292 16.1154 93.455 16.1896 93.3605 16.1896H89.1808C89.0863 16.1896 89.0121 16.1154 89.0121 16.0209V12.5766H88.2329V20.8787H89.0121V16.9958C89.0121 16.9014 89.0863 16.8272 89.1808 16.8272H93.3605C93.455 16.8272 93.5292 16.9014 93.5292 16.9958V20.8787Z" fill="#F06C00"/>
<path d="M97.9486 12.4072V21.0467H96.832V12.4072H97.9486Z" fill="#F06C00"/>
<path d="M97.9484 21.216H96.8318C96.7373 21.216 96.6631 21.1418 96.6631 21.0474V12.4079C96.6631 12.3135 96.7373 12.2393 96.8318 12.2393H97.9484C98.0428 12.2393 98.117 12.3135 98.117 12.4079V21.0474C98.117 21.1418 98.0428 21.216 97.9484 21.216ZM97.0004 20.8787H97.7797V12.5766H97.0004V20.8787Z" fill="#F06C00"/>
<path d="M100.31 12.4077H101.427V20.1093H105.117V21.0437H100.31V12.4043V12.4077Z" fill="#F06C00"/>
<path d="M105.117 21.2119H100.31C100.215 21.2119 100.141 21.1377 100.141 21.0432V12.4038C100.141 12.2992 100.246 12.2182 100.344 12.2385H101.426C101.521 12.2385 101.595 12.3127 101.595 12.4071V19.9401H105.117C105.211 19.9401 105.286 20.0143 105.286 20.1088V21.0432C105.286 21.1377 105.211 21.2119 105.117 21.2119ZM100.478 20.8745H104.948V20.2774H101.426C101.332 20.2774 101.258 20.2032 101.258 20.1088V12.5758H100.478V20.8745Z" fill="#F06C00"/>
<path d="M106.77 12.4077H107.887V20.1093H111.577V21.0437H106.77V12.4043V12.4077Z" fill="#F06C00"/>
<path d="M111.577 21.2119H106.77C106.675 21.2119 106.601 21.1377 106.601 21.0432V12.4038C106.601 12.2992 106.706 12.2182 106.803 12.2385H107.886C107.981 12.2385 108.055 12.3127 108.055 12.4071V19.9401H111.577C111.671 19.9401 111.746 20.0143 111.746 20.1088V21.0432C111.746 21.1377 111.671 21.2119 111.577 21.2119ZM106.938 20.8745H111.408V20.2774H107.886C107.792 20.2774 107.718 20.2032 107.718 20.1088V12.5758H106.938V20.8745Z" fill="#F06C00"/>
<path d="M116.357 12.5091C116.897 12.418 117.602 12.3438 118.496 12.3438C119.599 12.3438 120.405 12.6001 120.918 13.0623C121.394 13.4739 121.674 14.1013 121.674 14.8705C121.674 15.6396 121.445 16.2671 121.006 16.7158C120.416 17.3432 119.454 17.6637 118.365 17.6637C118.031 17.6637 117.724 17.6502 117.467 17.5861V21.0473H116.351V12.5124H116.357V12.5091ZM117.474 16.6753C117.717 16.7394 118.024 16.7664 118.398 16.7664C119.744 16.7664 120.564 16.1119 120.564 14.9211C120.564 13.7302 119.758 13.2276 118.526 13.2276C118.041 13.2276 117.666 13.2647 117.474 13.3187V16.6753Z" fill="#F06C00"/>
<path d="M117.467 21.2161H116.351C116.256 21.2161 116.182 21.1419 116.182 21.0475V12.5126C116.182 12.4485 116.219 12.3911 116.277 12.3608C116.29 12.354 116.314 12.3439 116.331 12.3405C116.988 12.2292 117.72 12.1719 118.496 12.1719C119.616 12.1719 120.47 12.4283 121.033 12.9343C121.556 13.3863 121.843 14.0745 121.843 14.8673C121.843 15.66 121.597 16.3516 121.128 16.8306C120.524 17.475 119.542 17.8292 118.365 17.8292C118.135 17.8292 117.876 17.8224 117.636 17.7887V21.0441C117.636 21.1385 117.562 21.2128 117.467 21.2128V21.2161ZM116.519 20.8788H117.299V17.5863C117.299 17.5357 117.322 17.4851 117.363 17.4547C117.403 17.4244 117.457 17.4109 117.508 17.4244C117.764 17.4885 118.085 17.4952 118.365 17.4952C119.448 17.4952 120.342 17.1781 120.885 16.6012C121.3 16.1795 121.505 15.5959 121.505 14.8706C121.505 14.1454 121.259 13.5786 120.807 13.1907C120.308 12.742 119.529 12.5126 118.496 12.5126C117.788 12.5126 117.123 12.5598 116.519 12.6543V20.8788ZM118.398 16.9352C117.994 16.9352 117.677 16.9048 117.43 16.8374C117.356 16.8171 117.305 16.7497 117.305 16.6754V13.3189C117.305 13.2446 117.356 13.1772 117.427 13.1569C117.646 13.0962 118.048 13.0591 118.523 13.0591C119.947 13.0591 120.73 13.7203 120.73 14.9212C120.73 16.1829 119.856 16.9352 118.395 16.9352H118.398ZM117.643 16.5405C117.842 16.5776 118.092 16.5979 118.398 16.5979C119.687 16.5979 120.396 16.0008 120.396 14.9212C120.396 13.9092 119.768 13.3964 118.527 13.3964C118.166 13.3964 117.849 13.4167 117.643 13.4538V16.5405Z" fill="#F06C00"/>
<path d="M124.704 12.4072V16.0202H128.883V12.4072H130.01V21.0467H128.883V16.9951H124.704V21.0467H123.587V12.4072H124.704Z" fill="#F06C00"/>
<path d="M130.01 21.216H128.883C128.789 21.216 128.715 21.1418 128.715 21.0474V17.1645H124.872V21.0474C124.872 21.1418 124.798 21.216 124.704 21.216H123.587C123.493 21.216 123.418 21.1418 123.418 21.0474V12.4079C123.418 12.3135 123.493 12.2393 123.587 12.2393H124.704C124.798 12.2393 124.872 12.3135 124.872 12.4079V15.8522H128.715V12.4079C128.715 12.3135 128.789 12.2393 128.883 12.2393H130.01C130.105 12.2393 130.179 12.3135 130.179 12.4079V21.0474C130.179 21.1418 130.105 21.216 130.01 21.216ZM129.052 20.8787H129.842V12.5766H129.052V16.0209C129.052 16.1154 128.978 16.1896 128.883 16.1896H124.704C124.609 16.1896 124.535 16.1154 124.535 16.0209V12.5766H123.756V20.8787H124.535V16.9958C124.535 16.9014 124.609 16.8272 124.704 16.8272H128.883C128.978 16.8272 129.052 16.9014 129.052 16.9958V20.8787Z" fill="#F06C00"/>
<path d="M133.471 12.4072V21.0467H132.354V12.4072H133.471Z" fill="#F06C00"/>
<path d="M133.471 21.216H132.354C132.26 21.216 132.186 21.1418 132.186 21.0474V12.4079C132.186 12.3135 132.26 12.2393 132.354 12.2393H133.471C133.565 12.2393 133.64 12.3135 133.64 12.4079V21.0474C133.64 21.1418 133.565 21.216 133.471 21.216ZM132.523 20.8787H133.302V12.5766H132.523V20.8787Z" fill="#F06C00"/>
<path d="M135.829 12.4077H136.946V20.1093H140.636V21.0437H135.829V12.4043V12.4077Z" fill="#F06C00"/>
<path d="M140.636 21.2119H135.829C135.734 21.2119 135.66 21.1377 135.66 21.0432V12.4038C135.66 12.2992 135.765 12.2182 135.863 12.2385H136.945C137.04 12.2385 137.114 12.3127 137.114 12.4071V19.9401H140.636C140.73 19.9401 140.805 20.0143 140.805 20.1088V21.0432C140.805 21.1377 140.73 21.2119 140.636 21.2119ZM135.998 20.8745H140.467V20.2774H136.945C136.851 20.2774 136.777 20.2032 136.777 20.1088V12.5758H135.998V20.8745Z" fill="#F06C00"/>
<path d="M143.689 18.3281L142.792 21.0437H141.638L144.573 12.4043H145.919L148.868 21.0437H147.677L146.752 18.3281H143.689ZM146.523 17.4577L145.676 14.9715C145.484 14.4081 145.356 13.8954 145.228 13.3961H145.201C145.072 13.9089 144.931 14.4351 144.765 14.9614L143.919 17.4611H146.523V17.4577Z" fill="#F06C00"/>
<path d="M148.868 21.2121H147.677C147.606 21.2121 147.542 21.1649 147.518 21.0974L146.634 18.4965H143.814L142.954 21.0974C142.93 21.1683 142.866 21.2121 142.795 21.2121H141.642C141.588 21.2121 141.537 21.1851 141.503 21.1413C141.473 21.0974 141.463 21.0401 141.48 20.9895L144.415 12.35C144.438 12.2826 144.502 12.2354 144.573 12.2354H145.919C145.99 12.2354 146.054 12.2826 146.078 12.35L149.026 20.9895C149.043 21.0401 149.036 21.0974 149.003 21.1413C148.972 21.1851 148.918 21.2121 148.864 21.2121H148.868ZM147.798 20.8748H148.632L145.798 12.5727H144.695L141.874 20.8748H142.671L143.531 18.2738C143.554 18.203 143.619 18.1592 143.689 18.1592H146.753C146.823 18.1592 146.887 18.2064 146.911 18.2738L147.795 20.8748H147.798ZM146.52 17.6295H143.919C143.865 17.6295 143.814 17.6025 143.781 17.5587C143.747 17.5148 143.74 17.4575 143.757 17.4069L144.604 14.9071C144.749 14.4483 144.887 13.9524 145.035 13.3553C145.056 13.2811 145.123 13.2271 145.201 13.2271C145.278 13.2271 145.373 13.2778 145.39 13.3553L145.413 13.4498C145.531 13.9153 145.656 14.3977 145.835 14.9173L146.682 17.4035C146.702 17.4642 146.685 17.5317 146.641 17.5755C146.611 17.6093 146.567 17.6295 146.523 17.6295H146.52ZM144.155 17.2922H146.29L145.518 15.0252C145.396 14.671 145.302 14.337 145.214 14.0165C145.116 14.3741 145.025 14.7014 144.927 15.0117L144.155 17.2922Z" fill="#F06C00"/>
<path d="M150.291 21.0467V12.4072H151.509L154.278 16.7792C154.919 17.7913 155.419 18.7021 155.83 19.586L155.857 19.5725C155.756 18.4187 155.729 17.3662 155.729 16.0236V12.4106H156.782V21.05H155.655L152.912 16.6679C152.308 15.7065 151.731 14.7214 151.296 13.7836L151.259 13.7971C151.323 14.8867 151.35 15.9257 151.35 17.3595V21.05H150.291V21.0467Z" fill="#F06C00"/>
<path d="M156.782 21.219H155.655C155.598 21.219 155.544 21.1886 155.513 21.1414L152.771 16.7593C152.231 15.8956 151.806 15.167 151.465 14.5125C151.502 15.366 151.519 16.2431 151.519 17.3631V21.0537C151.519 21.1481 151.445 21.2223 151.35 21.2223H150.298C150.274 21.2223 150.247 21.2156 150.227 21.2055C150.17 21.1785 150.123 21.1144 150.123 21.0503V12.4109C150.123 12.3164 150.197 12.2422 150.291 12.2422H151.509C151.566 12.2422 151.62 12.2725 151.651 12.3198L154.42 16.6918C154.883 17.4205 155.281 18.1154 155.628 18.7935C155.571 17.8792 155.557 17.0021 155.557 16.0238V12.4109C155.557 12.3164 155.631 12.2422 155.726 12.2422H156.778C156.873 12.2422 156.947 12.3164 156.947 12.4109V21.0503C156.947 21.1448 156.873 21.219 156.778 21.219H156.782ZM155.749 20.8816H156.613V12.5795H155.898V16.0238C155.898 17.272 155.918 18.3515 156.026 19.5592C156.033 19.6267 155.996 19.6942 155.935 19.7245C155.895 19.7448 155.834 19.7549 155.79 19.738C155.746 19.7245 155.699 19.6975 155.679 19.6571C155.26 18.7563 154.754 17.8455 154.137 16.8706L151.418 12.5762H150.463V20.8816H151.185V17.3597C151.185 15.9328 151.158 14.9038 151.094 13.8075C151.091 13.7333 151.135 13.6658 151.205 13.6388L151.243 13.6253C151.327 13.5949 151.415 13.6321 151.452 13.713C151.826 14.5193 152.336 15.4301 153.057 16.5771L155.749 20.8816Z" fill="#F06C00"/>
<path d="M160.776 13.3552H158.148V12.4072H164.544V13.3552H161.903V21.0467H160.776V13.3552Z" fill="#F06C00"/>
<path d="M161.902 21.216H160.776C160.681 21.216 160.607 21.1418 160.607 21.0474V13.5245H158.148C158.053 13.5245 157.979 13.4503 157.979 13.3559V12.4079C157.979 12.3135 158.053 12.2393 158.148 12.2393H164.544C164.638 12.2393 164.712 12.3135 164.712 12.4079V13.3559C164.712 13.4503 164.638 13.5245 164.544 13.5245H162.071V21.0474C162.071 21.1418 161.997 21.216 161.902 21.216ZM160.944 20.8787H161.734V13.3559C161.734 13.2614 161.808 13.1872 161.902 13.1872H164.375V12.5766H158.316V13.1872H160.776C160.87 13.1872 160.944 13.2614 160.944 13.3559V20.8787Z" fill="#F06C00"/>
<path d="M167.03 12.4072V16.0202H171.21V12.4072H172.337V21.0467H171.21V16.9951H167.03V21.0467H165.914V12.4072H167.03Z" fill="#F06C00"/>
<path d="M172.337 21.216H171.21C171.116 21.216 171.041 21.1418 171.041 21.0474V17.1645H167.199V21.0474C167.199 21.1418 167.125 21.216 167.03 21.216H165.914C165.819 21.216 165.745 21.1418 165.745 21.0474V12.4079C165.745 12.3135 165.819 12.2393 165.914 12.2393H167.03C167.125 12.2393 167.199 12.3135 167.199 12.4079V15.8522H171.041V12.4079C171.041 12.3135 171.116 12.2393 171.21 12.2393H172.337C172.431 12.2393 172.506 12.3135 172.506 12.4079V21.0474C172.506 21.1418 172.431 21.216 172.337 21.216ZM171.379 20.8787H172.168V12.5766H171.379V16.0209C171.379 16.1154 171.305 16.1896 171.21 16.1896H167.03C166.936 16.1896 166.862 16.1154 166.862 16.0209V12.5766H166.082V20.8787H166.862V16.9958C166.862 16.9014 166.936 16.8272 167.03 16.8272H171.21C171.305 16.8272 171.379 16.9014 171.379 16.9958V20.8787Z" fill="#F06C00"/>
<path d="M174.684 12.5225C175.248 12.4078 176.057 12.3438 176.823 12.3438C178.014 12.3438 178.783 12.563 179.323 13.0488C179.758 13.4334 180.001 14.0237 180.001 14.6883C180.001 15.8285 179.283 16.5842 178.372 16.8946V16.9317C179.04 17.1611 179.434 17.7784 179.64 18.6757C179.923 19.8801 180.126 20.7133 180.308 21.0473H179.154C179.013 20.8044 178.82 20.0589 178.577 18.9827C178.321 17.7919 177.859 17.3432 176.847 17.3027H175.794V21.0439H174.678V12.5192H174.684V12.5225ZM175.801 16.456H176.941C178.132 16.456 178.891 15.8015 178.891 14.8165C178.891 13.6999 178.085 13.2141 176.904 13.2006C176.364 13.2006 175.98 13.2512 175.801 13.3018V16.456Z" fill="#F06C00"/>
<path d="M180.308 21.2157H179.155C179.094 21.2157 179.04 21.1853 179.009 21.1313C178.871 20.8952 178.699 20.2812 178.412 19.0196C178.169 17.8996 177.775 17.5082 176.84 17.4711H175.963V21.0436C175.963 21.1381 175.889 21.2123 175.795 21.2123H174.678C174.583 21.2123 174.509 21.1381 174.509 21.0436V12.5189C174.509 12.4615 174.54 12.4076 174.59 12.3738C174.621 12.357 174.654 12.3469 174.685 12.3502C175.245 12.2389 176.037 12.1748 176.823 12.1748C178.055 12.1748 178.861 12.4042 179.435 12.9237C179.907 13.342 180.17 13.9695 180.17 14.688C180.17 15.6832 179.647 16.4962 178.753 16.9213C179.266 17.2249 179.61 17.7882 179.806 18.6384C180.089 19.8427 180.288 20.6557 180.457 20.966C180.484 21.0167 180.484 21.0807 180.457 21.1313C180.426 21.1819 180.372 21.2123 180.312 21.2123L180.308 21.2157ZM179.259 20.8783H180.048C179.89 20.4567 179.715 19.7415 179.475 18.7126C179.269 17.8186 178.891 17.2856 178.315 17.0899C178.247 17.0663 178.2 17.0022 178.2 16.9314V16.8943C178.2 16.8234 178.247 16.7593 178.315 16.7357C179.262 16.4119 179.829 15.6461 179.829 14.688C179.829 14.0673 179.61 13.5276 179.209 13.1733C178.699 12.7146 177.964 12.5122 176.82 12.5122C176.102 12.5122 175.373 12.5695 174.843 12.664V20.875H175.623V17.3025C175.623 17.208 175.697 17.1338 175.791 17.1338H176.844C177.937 17.1776 178.466 17.687 178.74 18.9453C178.905 19.6774 179.107 20.5376 179.256 20.8783H179.259ZM176.942 16.6244H175.801C175.707 16.6244 175.633 16.5502 175.633 16.4557V13.3015C175.633 13.2273 175.683 13.1599 175.754 13.1396C175.994 13.0721 176.422 13.0317 176.904 13.0317C178.294 13.0485 179.06 13.6827 179.06 14.8162C179.06 15.9497 178.21 16.6244 176.942 16.6244ZM175.97 16.2871H176.942C178.024 16.2871 178.723 15.7102 178.723 14.8162C178.723 13.6389 177.734 13.3791 176.901 13.369C176.479 13.369 176.159 13.4027 175.97 13.4365V16.2871Z" fill="#F06C00"/>
<path d="M189.413 16.6382C189.413 19.6102 187.605 21.189 185.402 21.189C183.2 21.189 181.52 19.4213 181.52 16.8068C181.52 14.0642 183.223 12.2695 185.531 12.2695C187.838 12.2695 189.413 14.0777 189.413 16.6415V16.6382ZM182.71 16.7799C182.71 18.6251 183.709 20.2781 185.466 20.2781C187.224 20.2781 188.236 18.6487 188.236 16.6888C188.236 14.9717 187.339 13.177 185.48 13.177C183.621 13.177 182.71 14.8806 182.71 16.7799Z" fill="#F06C00"/>
<path d="M185.402 21.3574C183.054 21.3574 181.351 19.4446 181.351 16.8066C181.351 14.037 183.068 12.1006 185.53 12.1006C187.993 12.1006 189.582 13.9661 189.582 16.6379C189.582 18.9892 188.286 21.3574 185.402 21.3574ZM185.53 12.4379C183.267 12.4379 181.688 14.236 181.688 16.8066C181.688 19.3771 183.25 21.02 185.402 21.02C187.737 21.02 189.244 19.2996 189.244 16.6413C189.244 14.1685 187.716 12.4379 185.53 12.4379ZM185.466 20.4465C183.547 20.4465 182.541 18.6012 182.541 16.7796C182.541 14.9579 183.449 13.008 185.48 13.008C187.511 13.008 188.404 14.9174 188.404 16.6885C188.404 18.9015 187.197 20.4465 185.466 20.4465ZM185.48 13.3454C183.56 13.3454 182.879 15.1941 182.879 16.7796C182.879 18.3651 183.688 20.1092 185.466 20.1092C187.244 20.1092 188.067 18.3347 188.067 16.6885C188.067 15.0422 187.258 13.3454 185.48 13.3454Z" fill="#F06C00"/>
<path d="M191.272 12.5091C191.812 12.418 192.517 12.3438 193.411 12.3438C194.514 12.3438 195.32 12.6001 195.833 13.0623C196.308 13.4739 196.588 14.1013 196.588 14.8705C196.588 15.6396 196.359 16.2671 195.921 16.7158C195.33 17.3432 194.369 17.6637 193.279 17.6637C192.945 17.6637 192.638 17.6502 192.382 17.5861V21.0473H191.265V12.5124H191.272V12.5091ZM192.389 16.6753C192.631 16.7394 192.938 16.7664 193.313 16.7664C194.659 16.7664 195.479 16.1119 195.479 14.9211C195.479 13.7302 194.672 13.2276 193.441 13.2276C192.955 13.2276 192.581 13.2647 192.389 13.3187V16.6753Z" fill="#F06C00"/>
<path d="M192.382 21.2157H191.265C191.171 21.2157 191.097 21.1415 191.097 21.047V12.5122C191.097 12.4481 191.134 12.3873 191.195 12.3603C191.208 12.3536 191.232 12.3469 191.245 12.3435C191.903 12.2322 192.635 12.1748 193.411 12.1748C194.531 12.1748 195.384 12.4312 195.944 12.9372C196.467 13.3893 196.757 14.0774 196.757 14.8702C196.757 15.663 196.511 16.3545 196.042 16.8336C195.438 17.4779 194.457 17.8321 193.279 17.8321C193.05 17.8321 192.79 17.8254 192.551 17.7916V21.047C192.551 21.1415 192.476 21.2157 192.382 21.2157ZM191.434 20.8783H192.213V17.5858C192.213 17.5352 192.237 17.4846 192.277 17.4543C192.318 17.4239 192.372 17.4104 192.422 17.4239C192.679 17.488 192.999 17.4948 193.279 17.4948C194.362 17.4948 195.256 17.1776 195.796 16.6008C196.211 16.1791 196.417 15.5955 196.417 14.8702C196.417 14.1449 196.17 13.5782 195.718 13.1902C195.219 12.7415 194.443 12.5122 193.408 12.5122C192.699 12.5122 192.035 12.5594 191.431 12.6538V20.8783H191.434ZM193.313 16.9348C192.908 16.9348 192.591 16.9044 192.345 16.8369C192.271 16.8167 192.22 16.7492 192.22 16.675V13.3184C192.22 13.2442 192.271 13.1767 192.345 13.1565C192.564 13.0958 192.966 13.0587 193.441 13.0587C194.865 13.0587 195.647 13.7199 195.647 14.9208C195.647 16.1825 194.774 16.9348 193.313 16.9348ZM192.557 16.5401C192.756 16.5772 193.006 16.5974 193.313 16.5974C194.602 16.5974 195.31 16.0003 195.31 14.9208C195.31 13.9088 194.683 13.396 193.441 13.396C193.08 13.396 192.763 13.4162 192.557 13.4533V16.5401Z" fill="#F06C00"/>
<path d="M199.618 12.4072V21.0467H198.501V12.4072H199.618Z" fill="#F06C00"/>
<path d="M199.618 21.216H198.501C198.407 21.216 198.333 21.1418 198.333 21.0474V12.4079C198.333 12.3135 198.407 12.2393 198.501 12.2393H199.618C199.712 12.2393 199.786 12.3135 199.786 12.4079V21.0474C199.786 21.1418 199.712 21.216 199.618 21.216ZM198.67 20.8787H199.449V12.5766H198.67V20.8787Z" fill="#F06C00"/>
<path d="M206.449 16.9956H203.093V20.1093H206.834V21.0437H201.976V12.4043H206.642V13.3387H203.093V16.0679H206.449V16.9922V16.9956Z" fill="#F06C00"/>
<path d="M206.834 21.2121H201.976C201.881 21.2121 201.807 21.1379 201.807 21.0435V12.404C201.807 12.3096 201.881 12.2354 201.976 12.2354H206.641C206.736 12.2354 206.81 12.3096 206.81 12.404V13.3385C206.81 13.4329 206.736 13.5071 206.641 13.5071H203.261V15.8989H206.449C206.543 15.8989 206.618 15.9731 206.618 16.0676V16.9919C206.618 17.0864 206.543 17.164 206.449 17.164H203.261V19.9403H206.834C206.928 19.9403 207.002 20.0146 207.002 20.109V21.0435C207.002 21.1379 206.928 21.2121 206.834 21.2121ZM202.144 20.8748H206.665V20.2777H203.092C202.998 20.2777 202.924 20.2035 202.924 20.109V16.9953C202.924 16.9009 202.998 16.8266 203.092 16.8266H206.28V16.2363H203.092C202.998 16.2363 202.924 16.1621 202.924 16.0676V13.3385C202.924 13.244 202.998 13.1698 203.092 13.1698H206.473V12.5727H202.144V20.8748Z" fill="#F06C00"/>
<path d="M208.537 19.6872C209.037 19.9942 209.769 20.2506 210.538 20.2506C211.678 20.2506 212.346 19.6468 212.346 18.7764C212.346 17.9701 211.884 17.508 210.717 17.0593C209.306 16.56 208.436 15.828 208.436 14.6102C208.436 13.2642 209.553 12.2656 211.229 12.2656C212.113 12.2656 212.754 12.4714 213.139 12.6873L212.832 13.5981C212.548 13.443 211.971 13.1866 211.192 13.1866C210.011 13.1866 209.563 13.8916 209.563 14.482C209.563 15.2882 210.089 15.6863 211.28 16.1485C212.741 16.7118 213.486 17.4169 213.486 18.6853C213.486 20.0178 212.498 21.1716 210.46 21.1716C209.627 21.1716 208.716 20.9287 208.254 20.6217L208.537 19.6872Z" fill="#F06C00"/>
<path d="M210.46 21.3405C209.617 21.3405 208.672 21.1044 208.159 20.7636C208.099 20.7232 208.068 20.6456 208.092 20.5747L208.375 19.6403C208.389 19.5897 208.429 19.5492 208.477 19.5323C208.524 19.5121 208.581 19.5188 208.625 19.5458C209.175 19.8832 209.887 20.0856 210.538 20.0856C211.55 20.0856 212.177 19.5863 212.177 18.78C212.177 18.0615 211.779 17.6533 210.656 17.2215C209.026 16.6446 208.267 15.8148 208.267 14.6138C208.267 13.1329 209.485 12.1006 211.229 12.1006C212.275 12.1006 212.926 12.3772 213.22 12.5425C213.291 12.583 213.324 12.6673 213.297 12.7449L212.99 13.6558C212.973 13.703 212.94 13.7401 212.892 13.7603C212.845 13.7772 212.795 13.7738 212.751 13.7502C212.424 13.5714 211.891 13.3589 211.192 13.3589C210.184 13.3589 209.732 13.9256 209.732 14.4856C209.732 15.1536 210.123 15.5213 211.341 15.9936C212.963 16.6177 213.655 17.4239 213.655 18.689C213.655 19.954 212.818 21.3439 210.46 21.3439V21.3405ZM208.453 20.5477C208.932 20.8176 209.745 21.0032 210.46 21.0032C212.198 21.0032 213.318 20.0923 213.318 18.6856C213.318 17.569 212.71 16.8808 211.219 16.3073C210.035 15.8485 209.394 15.4201 209.394 14.4823C209.394 13.7536 209.951 13.0182 211.192 13.0182C211.847 13.0182 212.37 13.1868 212.734 13.3589L212.933 12.7685C212.626 12.6201 212.069 12.4312 211.229 12.4312C209.684 12.4312 208.605 13.3252 208.605 14.6071C208.605 15.6461 209.293 16.3748 210.774 16.8976C211.82 17.2991 212.515 17.7714 212.515 18.7733C212.515 19.7752 211.739 20.4162 210.538 20.4162C209.89 20.4162 209.209 20.2441 208.638 19.9371L208.456 20.5444L208.453 20.5477Z" fill="#F06C00"/>
<path d="M55.2739 29.5004H56.3905V37.2021H60.0811V38.1365H55.2739V29.4971V29.5004Z" fill="#F06C00"/>
<path d="M60.0813 38.3056H55.2741C55.1797 38.3056 55.1055 38.2314 55.1055 38.137V29.4975C55.1055 29.3929 55.21 29.312 55.3079 29.3322H56.3908C56.4852 29.3322 56.5594 29.4064 56.5594 29.5009V37.0338H60.0813C60.1758 37.0338 60.25 37.1081 60.25 37.2025V38.137C60.25 38.2314 60.1758 38.3056 60.0813 38.3056ZM55.4428 37.9683H59.9127V37.3712H56.3908C56.2963 37.3712 56.2221 37.297 56.2221 37.2025V29.6696H55.4428V37.9683Z" fill="#F06C00"/>
<path d="M62.851 29.501V33.114H67.0307V29.501H68.1574V38.1404H67.0307V34.0889H62.851V38.1404H61.7344V29.501H62.851Z" fill="#F06C00"/>
<path d="M68.1572 38.3088H67.0304C66.936 38.3088 66.8618 38.2346 66.8618 38.1401V34.2573H63.0194V38.1401C63.0194 38.2346 62.9452 38.3088 62.8507 38.3088H61.7341C61.6396 38.3088 61.5654 38.2346 61.5654 38.1401V29.5007C61.5654 29.4062 61.6396 29.332 61.7341 29.332H62.8507C62.9452 29.332 63.0194 29.4062 63.0194 29.5007V32.945H66.8618V29.5007C66.8618 29.4062 66.936 29.332 67.0304 29.332H68.1572C68.2516 29.332 68.3258 29.4062 68.3258 29.5007V38.1401C68.3258 38.2346 68.2516 38.3088 68.1572 38.3088ZM67.1991 37.9715H67.9885V29.6694H67.1991V33.1137C67.1991 33.2081 67.1249 33.2824 67.0304 33.2824H62.8507C62.7563 33.2824 62.682 33.2081 62.682 33.1137V29.6694H61.9028V37.9715H62.682V34.0886C62.682 33.9942 62.7563 33.9199 62.8507 33.9199H67.0304C67.1249 33.9199 67.1991 33.9942 67.1991 34.0886V37.9715Z" fill="#F06C00"/>
<path d="M79.6675 37.8571C79.256 38.0629 78.4362 38.2687 77.3871 38.2687C74.9514 38.2687 73.1196 36.7304 73.1196 33.8967C73.1196 31.063 74.9514 29.3594 77.6299 29.3594C78.7061 29.3594 79.3875 29.5888 79.681 29.7439L79.4111 30.6548C78.9895 30.449 78.3856 30.2972 77.6671 30.2972C75.643 30.2972 74.297 31.5926 74.297 33.8596C74.297 35.9747 75.5148 37.3342 77.6165 37.3342C78.2945 37.3342 78.9895 37.1926 79.4348 36.9767L79.6641 37.8605H79.6675V37.8571Z" fill="#F06C00"/>
<path d="M77.3873 38.4371C74.6919 38.4371 72.9512 36.6559 72.9512 33.8964C72.9512 31.1369 74.7863 29.1904 77.6302 29.1904C78.8986 29.1904 79.58 29.5008 79.7588 29.5952C79.8297 29.6324 79.8634 29.7167 79.8432 29.7909L79.5733 30.7017C79.5598 30.749 79.5261 30.7895 79.4788 30.8097C79.4316 30.8299 79.381 30.8299 79.3371 30.8097C78.8885 30.5904 78.2947 30.469 77.6673 30.469C75.6634 30.469 74.4659 31.7374 74.4659 33.8627C74.4659 35.988 75.6432 37.1687 77.6167 37.1687C78.2576 37.1687 78.9289 37.0371 79.3607 36.8279C79.4046 36.8077 79.4586 36.8043 79.5058 36.8279C79.553 36.8482 79.5868 36.8887 79.5969 36.9393L79.8162 37.7826C79.8499 37.8467 79.8398 37.9243 79.7892 37.9783H79.7858C79.7656 38.0019 79.742 38.0188 79.715 38.0255C79.2899 38.2279 78.4668 38.4405 77.3873 38.4405V38.4371ZM77.6302 29.5278C74.9921 29.5278 73.2885 31.2415 73.2885 33.8964C73.2885 36.5513 74.8605 38.0997 77.3873 38.0997C78.3251 38.0997 79.0605 37.9311 79.4653 37.7624L79.3203 37.2092C78.8514 37.3913 78.2205 37.5026 77.6167 37.5026C75.4644 37.5026 74.1285 36.106 74.1285 33.8593C74.1285 31.6126 75.4846 30.1283 77.6673 30.1283C78.2644 30.1283 78.8379 30.2328 79.3034 30.4217L79.4788 29.8348C79.2123 29.7201 78.6152 29.5278 77.6302 29.5278Z" fill="#F06C00"/>
<path d="M82.9266 35.4209L82.0292 38.1365H80.8755L83.8104 29.4971H85.1564L88.1048 38.1365H86.914L85.9897 35.4209H82.9266ZM85.7603 34.5505L84.9135 32.0643C84.7212 31.5009 84.593 30.9881 84.4649 30.4889H84.4379C84.3097 31.0016 84.168 31.5279 84.0027 32.0542L83.1559 34.5539H85.7603V34.5505Z" fill="#F06C00"/>
<path d="M88.105 38.3059H86.9142C86.8433 38.3059 86.7792 38.2587 86.7556 38.1912L85.8718 35.5902H83.0515L82.1913 38.1912C82.1677 38.2587 82.1036 38.3059 82.0328 38.3059H80.879C80.8251 38.3059 80.7745 38.2789 80.7407 38.235C80.7104 38.1912 80.7002 38.1338 80.7171 38.0832L83.652 29.4438C83.6756 29.3763 83.7397 29.3291 83.8106 29.3291H85.1566C85.2274 29.3291 85.2915 29.3763 85.3151 29.4438L88.2635 38.0832C88.2804 38.1338 88.2737 38.1912 88.2399 38.235C88.2062 38.2789 88.1556 38.3059 88.1016 38.3059H88.105ZM87.0356 37.9685H87.8688L85.0351 29.6664H83.932L81.1118 37.9685H81.9079L82.7682 35.3676C82.7918 35.3001 82.8559 35.2529 82.9267 35.2529H85.9898C86.0607 35.2529 86.1248 35.3001 86.1484 35.3676L87.0322 37.9685H87.0356ZM85.7571 34.7233H83.1561C83.1021 34.7233 83.0515 34.6963 83.0178 34.6524C82.9841 34.6086 82.9773 34.5512 82.9942 34.5006L83.8409 32.0009C83.986 31.5421 84.1243 31.0462 84.2727 30.4491C84.293 30.3749 84.3604 30.3209 84.4347 30.3209C84.5089 30.3209 84.6067 30.3715 84.6236 30.4491L84.6472 30.5368C84.7653 31.0023 84.8901 31.4881 85.0689 32.011L85.9156 34.4972C85.9359 34.558 85.919 34.6288 85.8718 34.6727H85.8684C85.838 34.7064 85.7942 34.7233 85.7537 34.7233H85.7571ZM83.3923 34.3859H85.5277L84.7551 32.119C84.6337 31.7647 84.5392 31.4308 84.4515 31.1103C84.3537 31.4679 84.2626 31.7951 84.1648 32.1055L83.3923 34.3859Z" fill="#F06C00"/>
<path d="M89.7846 29.6057C90.3243 29.5146 91.0294 29.4404 91.9233 29.4404C93.0265 29.4404 93.8327 29.6968 94.3455 30.159C94.8212 30.5705 95.1012 31.198 95.1012 31.9672C95.1012 32.7363 94.8718 33.3638 94.4332 33.8124C93.8428 34.4399 92.8814 34.7604 91.7918 34.7604C91.4578 34.7604 91.1508 34.7469 90.8944 34.6828V38.144H89.7778V29.6091H89.7846V29.6057ZM90.9012 33.772C91.1441 33.8361 91.4511 33.863 91.8255 33.863C93.1715 33.863 93.9913 33.2086 93.9913 32.0178C93.9913 30.8269 93.185 30.3243 91.9537 30.3243C91.4679 30.3243 91.0935 30.3614 90.9012 30.4154V33.772Z" fill="#F06C00"/>
<path d="M90.8947 38.3124H89.778C89.6836 38.3124 89.6094 38.2381 89.6094 38.1437V29.6088C89.6094 29.5447 89.6465 29.484 89.7038 29.457C89.7173 29.4503 89.7409 29.4402 89.7578 29.4402C90.419 29.3288 91.1477 29.2715 91.9236 29.2715C93.0436 29.2715 93.897 29.5279 94.457 30.0339C94.9799 30.4859 95.27 31.1741 95.27 31.9669C95.27 32.7596 95.0238 33.4512 94.5549 33.9302C93.951 34.5746 92.9693 34.9288 91.792 34.9288C91.5592 34.9288 91.3029 34.922 91.0633 34.8883V38.1437C91.0633 38.2381 90.9891 38.3124 90.8947 38.3124ZM89.9467 37.975H90.726V34.6825C90.726 34.6319 90.7496 34.5813 90.7901 34.551C90.8306 34.5206 90.8845 34.5071 90.9351 34.5206C91.1915 34.5847 91.512 34.5948 91.792 34.5948C92.8715 34.5948 93.7689 34.2777 94.312 33.7008C94.7269 33.2792 94.9327 32.6955 94.9327 31.9703C94.9327 31.245 94.6864 30.6782 94.2344 30.2903C93.7351 29.8416 92.9592 29.6122 91.9236 29.6122C91.2185 29.6122 90.5539 29.6594 89.9467 29.7539V37.9784V37.975ZM91.8257 34.0314C91.4209 34.0314 91.1038 34.0011 90.8575 33.9336C90.7833 33.9134 90.7327 33.8459 90.7327 33.7717V30.4151C90.7327 30.3409 90.7833 30.2734 90.8542 30.2532C91.0735 30.1924 91.4749 30.1553 91.9539 30.1553C93.3775 30.1553 94.1602 30.8165 94.1602 32.0175C94.1602 33.2792 93.2865 34.0314 91.8257 34.0314ZM91.0701 33.6367C91.2691 33.6739 91.5188 33.6941 91.8257 33.6941C93.1144 33.6941 93.8228 33.1004 93.8228 32.0175C93.8228 31.0054 93.1954 30.4927 91.9539 30.4927C91.593 30.4927 91.2759 30.5129 91.0701 30.55V33.6367Z" fill="#F06C00"/>
<path d="M98.1308 29.501V38.1404H97.0142V29.501H98.1308Z" fill="#F06C00"/>
<path d="M98.1305 38.3088H97.0139C96.9194 38.3088 96.8452 38.2346 96.8452 38.1401V29.5007C96.8452 29.4062 96.9194 29.332 97.0139 29.332H98.1305C98.225 29.332 98.2992 29.4062 98.2992 29.5007V38.1401C98.2992 38.2346 98.225 38.3088 98.1305 38.3088ZM97.1826 37.9715H97.9618V29.6694H97.1826V37.9715Z" fill="#F06C00"/>
<path d="M102.128 30.4489H99.5005V29.501H105.897V30.4489H103.255V38.1404H102.128V30.4489Z" fill="#F06C00"/>
<path d="M103.255 38.3088H102.128C102.034 38.3088 101.959 38.2346 101.959 38.1401V30.6173H99.5002C99.4058 30.6173 99.3315 30.5431 99.3315 30.4486V29.5007C99.3315 29.4062 99.4058 29.332 99.5002 29.332H105.896C105.991 29.332 106.065 29.4062 106.065 29.5007V30.4486C106.065 30.5431 105.991 30.6173 105.896 30.6173H103.424V38.1401C103.424 38.2346 103.349 38.3088 103.255 38.3088ZM102.297 37.9715H103.086V30.4486C103.086 30.3542 103.16 30.28 103.255 30.28H105.728V29.6694H99.6689V30.28H102.128C102.223 30.28 102.297 30.3542 102.297 30.4486V37.9715Z" fill="#F06C00"/>
<path d="M107.704 35.4209L106.807 38.1365H105.653L108.588 29.4971H109.934L112.883 38.1365H111.692L110.767 35.4209H107.704ZM110.538 34.5505L109.691 32.0643C109.499 31.5009 109.371 30.9881 109.243 30.4889H109.216C109.088 31.0016 108.946 31.5279 108.781 32.0542L107.934 34.5539H110.538V34.5505Z" fill="#F06C00"/>
<path d="M112.883 38.3059H111.692C111.621 38.3059 111.557 38.2587 111.533 38.1912L110.65 35.5902H107.829L106.969 38.1912C106.946 38.2587 106.881 38.3059 106.811 38.3059H105.657C105.603 38.3059 105.552 38.2789 105.519 38.235C105.488 38.1912 105.478 38.1338 105.495 38.0832L108.43 29.4438C108.453 29.3763 108.518 29.3291 108.588 29.3291H109.934C110.005 29.3291 110.069 29.3763 110.093 29.4438L113.041 38.0832C113.058 38.1338 113.051 38.1912 113.018 38.235C112.987 38.2789 112.933 38.3059 112.879 38.3059H112.883ZM111.813 37.9685H112.647L109.813 29.6664H108.71L105.89 37.9685H106.686L107.546 35.3676C107.57 35.3001 107.634 35.2529 107.705 35.2529H110.768C110.839 35.2529 110.903 35.3001 110.926 35.3676L111.81 37.9685H111.813ZM110.535 34.7233H107.934C107.88 34.7233 107.829 34.6963 107.796 34.6524C107.762 34.6086 107.755 34.5512 107.772 34.5006L108.619 32.0009C108.764 31.5421 108.902 31.0462 109.051 30.4491C109.071 30.3749 109.138 30.3209 109.216 30.3209C109.293 30.3209 109.388 30.3715 109.405 30.4491L109.428 30.5435C109.546 31.0091 109.671 31.4915 109.85 32.0144L110.697 34.5006C110.717 34.5613 110.7 34.6288 110.656 34.6727C110.626 34.7064 110.582 34.7266 110.538 34.7266L110.535 34.7233ZM108.17 34.3859H110.306L109.533 32.119C109.412 31.7647 109.317 31.4308 109.229 31.1103C109.132 31.4679 109.04 31.7951 108.943 32.1055L108.17 34.3859Z" fill="#F06C00"/>
<path d="M114.563 29.5004H115.68V37.2021H119.37V38.1365H114.563V29.4971V29.5004Z" fill="#F06C00"/>
<path d="M119.37 38.3056H114.563C114.468 38.3056 114.394 38.2314 114.394 38.137V29.4975C114.394 29.3929 114.499 29.312 114.596 29.3322H115.679C115.774 29.3322 115.848 29.4064 115.848 29.5009V37.0338H119.37C119.464 37.0338 119.539 37.1081 119.539 37.2025V38.137C119.539 38.2314 119.464 38.3056 119.37 38.3056ZM114.731 37.9683H119.201V37.3712H115.679C115.585 37.3712 115.511 37.297 115.511 37.2025V29.6696H114.731V37.9683Z" fill="#F06C00"/>
</g>
<defs>
<clipPath id="clip0_2632_324">
<rect width="213.655" height="51" fill="white"/>
</clipPath>
</defs>
</svg>
